<svg xmlns="http://www.w3.org/2000/svg" xmlns:xlink="http://www.w3.org/1999/xlink" width="189" zoomAndPan="magnify" viewBox="0 0 141.75 42.75" height="57" preserveAspectRatio="xMidYMid meet" version="1.0"><defs><g/><clipPath id="f96321a6a6"><path d="M 6 1.09375 L 22 1.09375 L 22 9 L 6 9 Z M 6 1.09375 " clip-rule="nonzero"/></clipPath><clipPath id="9aaf34302d"><path d="M 6 19 L 22 19 L 22 27.195312 L 6 27.195312 Z M 6 19 " clip-rule="nonzero"/></clipPath><clipPath id="b9f5046c9d"><path d="M 19 6 L 26.578125 6 L 26.578125 22 L 19 22 Z M 19 6 " clip-rule="nonzero"/></clipPath><clipPath id="b4d2b95d09"><path d="M 0.476562 6 L 8 6 L 8 22 L 0.476562 22 Z M 0.476562 6 " clip-rule="nonzero"/></clipPath><clipPath id="ff4e960e37"><path d="M 1 0.453125 L 8 0.453125 L 8 8 L 1 8 Z M 1 0.453125 " clip-rule="nonzero"/></clipPath><clipPath id="e6fcd6d1ca"><path d="M 26 0.453125 L 34 0.453125 L 34 8 L 26 8 Z M 26 0.453125 " clip-rule="nonzero"/></clipPath><clipPath id="ef20433aaf"><path d="M 34 0.453125 L 42 0.453125 L 42 8 L 34 8 Z M 34 0.453125 " clip-rule="nonzero"/></clipPath><clipPath id="6d3d9d5801"><path d="M 51 0.453125 L 58 0.453125 L 58 8 L 51 8 Z M 51 0.453125 " clip-rule="nonzero"/></clipPath><clipPath id="e593c3fba4"><rect x="0" width="80" y="0" height="10"/></clipPath><clipPath id="f5b803abca"><path d="M 32 16 L 138.347656 16 L 138.347656 24 L 32 24 Z M 32 16 " clip-rule="nonzero"/></clipPath><clipPath id="d05ddbb557"><rect x="0" width="107" y="0" height="8"/></clipPath><clipPath id="a6487ccaf4"><rect x="0" width="139" y="0" height="28"/></clipPath></defs><g transform="matrix(1, 0, 0, 1, 2, 7)"><g clip-path="url(#a6487ccaf4)"><g clip-path="url(#f96321a6a6)"><path fill="#ffffff" d="M 13.53125 8.527344 C 13.5 8.527344 13.46875 8.515625 13.445312 8.496094 C 12.042969 7.226562 10.230469 6.527344 8.339844 6.523438 C 7.605469 6.535156 6.875 6.648438 6.167969 6.867188 C 6.125 6.882812 6.074219 6.871094 6.042969 6.839844 C 6.007812 6.804688 5.996094 6.757812 6.007812 6.710938 C 7.007812 3.363281 10.023438 1.105469 13.519531 1.09375 C 17.015625 1.09375 20.039062 3.34375 21.046875 6.691406 C 21.058594 6.738281 21.046875 6.785156 21.015625 6.820312 C 20.980469 6.851562 20.933594 6.863281 20.886719 6.851562 C 20.175781 6.636719 19.441406 6.527344 18.695312 6.523438 C 16.816406 6.53125 15.011719 7.230469 13.617188 8.496094 C 13.59375 8.515625 13.5625 8.527344 13.53125 8.527344 Z M 8.339844 6.269531 C 10.257812 6.273438 12.09375 6.964844 13.53125 8.230469 C 14.960938 6.972656 16.789062 6.277344 18.695312 6.269531 C 19.386719 6.273438 20.070312 6.363281 20.730469 6.542969 C 19.691406 3.425781 16.824219 1.347656 13.519531 1.347656 C 10.21875 1.359375 7.355469 3.441406 6.324219 6.558594 C 6.980469 6.375 7.65625 6.277344 8.339844 6.269531 Z M 8.339844 6.269531 " fill-opacity="1" fill-rule="nonzero"/></g><g clip-path="url(#9aaf34302d)"><path fill="#ffffff" d="M 13.519531 27.175781 C 10.023438 27.164062 7.007812 24.90625 6.007812 21.558594 C 5.996094 21.515625 6.007812 21.464844 6.042969 21.433594 C 6.074219 21.398438 6.125 21.386719 6.167969 21.402344 C 6.875 21.621094 7.605469 21.738281 8.34375 21.746094 C 10.230469 21.738281 12.039062 21.035156 13.433594 19.765625 C 13.480469 19.71875 13.554688 19.71875 13.605469 19.765625 C 15 21.035156 16.808594 21.738281 18.695312 21.746094 C 19.433594 21.738281 20.164062 21.621094 20.867188 21.402344 C 20.914062 21.386719 20.960938 21.398438 20.996094 21.433594 C 21.03125 21.464844 21.042969 21.515625 21.027344 21.558594 C 20.03125 24.90625 17.011719 27.164062 13.519531 27.175781 Z M 6.324219 21.710938 C 7.355469 24.828125 10.21875 26.910156 13.519531 26.921875 C 16.820312 26.910156 19.683594 24.828125 20.714844 21.710938 C 20.058594 21.894531 19.378906 21.992188 18.699219 22 C 16.785156 21.992188 14.949219 21.292969 13.519531 20.027344 C 12.089844 21.292969 10.253906 21.992188 8.34375 22 C 7.65625 21.992188 6.980469 21.894531 6.324219 21.710938 Z M 6.324219 21.710938 " fill-opacity="1" fill-rule="nonzero"/></g><g clip-path="url(#b9f5046c9d)"><path fill="#ffffff" d="M 20.90625 21.648438 C 20.875 21.648438 20.839844 21.636719 20.816406 21.613281 C 20.785156 21.578125 20.773438 21.53125 20.785156 21.484375 C 21.003906 20.78125 21.121094 20.050781 21.128906 19.3125 C 21.128906 17.421875 20.429688 15.609375 19.160156 14.207031 C 19.117188 14.160156 19.117188 14.085938 19.160156 14.039062 C 20.421875 12.644531 21.121094 10.839844 21.128906 8.957031 C 21.128906 8.214844 21.019531 7.476562 20.804688 6.765625 C 20.789062 6.722656 20.800781 6.671875 20.835938 6.640625 C 20.867188 6.605469 20.917969 6.59375 20.960938 6.609375 C 24.308594 7.613281 26.558594 10.640625 26.5625 14.136719 C 26.546875 17.628906 24.292969 20.648438 20.941406 21.644531 C 20.929688 21.648438 20.917969 21.648438 20.90625 21.648438 Z M 19.425781 14.125 C 20.6875 15.558594 21.382812 17.398438 21.382812 19.3125 C 21.375 19.996094 21.277344 20.671875 21.097656 21.332031 C 24.210938 20.300781 26.296875 17.4375 26.308594 14.136719 C 26.304688 10.832031 24.226562 7.960938 21.113281 6.921875 C 21.292969 7.585938 21.382812 8.269531 21.382812 8.957031 C 21.378906 10.863281 20.683594 12.695312 19.425781 14.125 Z M 19.425781 14.125 " fill-opacity="1" fill-rule="nonzero"/></g><path fill="#ffffff" d="M 18.699219 22 C 16.746094 21.992188 14.875 21.265625 13.433594 19.953125 C 13.40625 19.929688 13.390625 19.894531 13.390625 19.859375 C 13.390625 19.824219 13.40625 19.789062 13.433594 19.765625 C 14.460938 18.832031 15.210938 17.636719 15.609375 16.308594 C 15.621094 16.269531 15.652344 16.234375 15.691406 16.222656 C 17.027344 15.824219 18.226562 15.070312 19.160156 14.039062 C 19.207031 13.984375 19.300781 13.984375 19.347656 14.039062 C 20.660156 15.484375 21.382812 17.359375 21.382812 19.3125 C 21.375 20.078125 21.253906 20.832031 21.027344 21.558594 C 21.015625 21.601562 20.984375 21.632812 20.945312 21.644531 C 20.214844 21.871094 19.460938 21.992188 18.699219 22 Z M 13.707031 19.855469 C 15.089844 21.070312 16.855469 21.738281 18.695312 21.746094 C 19.410156 21.738281 20.121094 21.628906 20.804688 21.421875 C 21.011719 20.734375 21.121094 20.027344 21.128906 19.3125 C 21.128906 17.46875 20.460938 15.699219 19.253906 14.3125 C 18.316406 15.308594 17.136719 16.046875 15.832031 16.445312 C 15.429688 17.75 14.699219 18.921875 13.707031 19.855469 Z M 13.707031 19.855469 " fill-opacity="1" fill-rule="nonzero"/><path fill="#ffffff" d="M 15.730469 16.472656 C 15.695312 16.472656 15.664062 16.460938 15.640625 16.433594 C 15.605469 16.402344 15.59375 16.351562 15.609375 16.308594 C 15.828125 15.601562 15.945312 14.871094 15.953125 14.132812 C 15.949219 13.390625 15.839844 12.65625 15.625 11.945312 C 15.613281 11.898438 15.625 11.851562 15.65625 11.816406 C 15.691406 11.785156 15.738281 11.773438 15.785156 11.785156 C 17.15625 12.199219 18.386719 12.976562 19.347656 14.039062 C 19.390625 14.085938 19.390625 14.160156 19.347656 14.207031 C 18.382812 15.273438 17.144531 16.054688 15.765625 16.46875 C 15.753906 16.472656 15.742188 16.472656 15.730469 16.472656 Z M 15.933594 12.101562 C 16.113281 12.761719 16.203125 13.445312 16.207031 14.136719 C 16.199219 14.820312 16.101562 15.496094 15.917969 16.152344 C 17.125 15.75 18.210938 15.054688 19.082031 14.125 C 18.21875 13.195312 17.136719 12.5 15.933594 12.101562 Z M 15.933594 12.101562 " fill-opacity="1" fill-rule="nonzero"/><path fill="#ffffff" d="M 19.253906 14.25 C 19.21875 14.25 19.183594 14.234375 19.160156 14.207031 C 18.230469 13.183594 17.039062 12.429688 15.710938 12.027344 C 15.671875 12.015625 15.636719 11.984375 15.625 11.945312 C 15.226562 10.617188 14.472656 9.425781 13.445312 8.496094 C 13.417969 8.46875 13.402344 8.4375 13.402344 8.398438 C 13.402344 8.363281 13.417969 8.328125 13.445312 8.304688 C 14.886719 7 16.75 6.277344 18.695312 6.269531 C 19.464844 6.273438 20.226562 6.386719 20.960938 6.609375 C 21.003906 6.621094 21.035156 6.652344 21.046875 6.691406 C 21.269531 7.425781 21.382812 8.191406 21.382812 8.957031 C 21.375 10.902344 20.652344 12.765625 19.347656 14.207031 C 19.324219 14.234375 19.289062 14.25 19.253906 14.25 Z M 15.847656 11.804688 C 17.148438 12.207031 18.320312 12.941406 19.253906 13.933594 C 20.457031 12.554688 21.121094 10.792969 21.128906 8.957031 C 21.128906 8.238281 21.027344 7.523438 20.824219 6.832031 C 20.132812 6.628906 19.417969 6.527344 18.695312 6.523438 C 16.863281 6.53125 15.101562 7.195312 13.71875 8.402344 C 14.710938 9.332031 15.445312 10.503906 15.847656 11.804688 Z M 15.847656 11.804688 " fill-opacity="1" fill-rule="nonzero"/><g clip-path="url(#b4d2b95d09)"><path fill="#ffffff" d="M 6.132812 21.648438 C 6.121094 21.648438 6.105469 21.648438 6.09375 21.644531 C 2.746094 20.648438 0.488281 17.628906 0.476562 14.136719 C 0.488281 10.640625 2.746094 7.625 6.09375 6.625 C 6.140625 6.613281 6.1875 6.625 6.222656 6.660156 C 6.253906 6.691406 6.265625 6.742188 6.253906 6.785156 C 6.035156 7.488281 5.917969 8.222656 5.910156 8.960938 C 5.917969 10.84375 6.621094 12.652344 7.890625 14.050781 C 7.933594 14.097656 7.933594 14.171875 7.890625 14.222656 C 6.621094 15.617188 5.917969 17.425781 5.910156 19.3125 C 5.917969 20.050781 6.035156 20.78125 6.253906 21.484375 C 6.265625 21.53125 6.253906 21.578125 6.222656 21.613281 C 6.199219 21.636719 6.164062 21.648438 6.132812 21.648438 Z M 5.941406 6.941406 C 2.828125 7.972656 0.742188 10.835938 0.730469 14.136719 C 0.742188 17.4375 2.828125 20.300781 5.941406 21.332031 C 5.757812 20.675781 5.664062 19.996094 5.65625 19.3125 C 5.660156 17.398438 6.359375 15.566406 7.625 14.136719 C 6.359375 12.703125 5.660156 10.871094 5.65625 8.957031 C 5.664062 8.273438 5.757812 7.597656 5.941406 6.941406 Z M 5.941406 6.941406 " fill-opacity="1" fill-rule="nonzero"/></g><path fill="#ffffff" d="M 8.34375 22 C 7.578125 21.992188 6.820312 21.871094 6.09375 21.644531 C 6.054688 21.632812 6.023438 21.601562 6.011719 21.5625 C 5.785156 20.832031 5.664062 20.078125 5.65625 19.3125 C 5.660156 17.363281 6.390625 15.492188 7.703125 14.050781 C 7.726562 14.023438 7.761719 14.007812 7.796875 14.007812 C 7.832031 14.007812 7.867188 14.023438 7.890625 14.050781 C 8.820312 15.074219 10.015625 15.828125 11.34375 16.222656 C 11.386719 16.234375 11.417969 16.269531 11.429688 16.308594 C 11.828125 17.636719 12.578125 18.832031 13.605469 19.765625 C 13.632812 19.789062 13.644531 19.824219 13.644531 19.859375 C 13.644531 19.894531 13.632812 19.929688 13.605469 19.953125 C 12.160156 21.265625 10.292969 21.992188 8.34375 22 Z M 6.234375 21.421875 C 6.917969 21.628906 7.628906 21.738281 8.34375 21.746094 C 10.183594 21.738281 11.949219 21.070312 13.332031 19.855469 C 12.339844 18.921875 11.609375 17.75 11.207031 16.449219 C 9.90625 16.046875 8.730469 15.316406 7.796875 14.324219 C 6.585938 15.707031 5.914062 17.472656 5.910156 19.3125 C 5.917969 20.027344 6.027344 20.738281 6.234375 21.421875 Z M 6.234375 21.421875 " fill-opacity="1" fill-rule="nonzero"/><path fill="#ffffff" d="M 13.519531 19.984375 C 13.488281 19.984375 13.457031 19.972656 13.433594 19.953125 C 12.375 18.988281 11.597656 17.753906 11.1875 16.382812 C 11.171875 16.335938 11.1875 16.289062 11.21875 16.253906 C 11.253906 16.222656 11.300781 16.210938 11.347656 16.222656 C 12.050781 16.445312 12.78125 16.558594 13.519531 16.566406 C 14.253906 16.558594 14.988281 16.445312 15.691406 16.222656 C 15.738281 16.210938 15.785156 16.222656 15.820312 16.253906 C 15.851562 16.289062 15.863281 16.335938 15.851562 16.382812 C 15.441406 17.753906 14.664062 18.988281 13.605469 19.953125 C 13.582031 19.976562 13.550781 19.984375 13.519531 19.984375 Z M 11.5 16.535156 C 11.902344 17.734375 12.59375 18.820312 13.519531 19.6875 C 14.445312 18.820312 15.136719 17.734375 15.535156 16.535156 C 14.878906 16.71875 14.203125 16.8125 13.519531 16.824219 C 12.835938 16.8125 12.15625 16.71875 11.5 16.535156 Z M 11.5 16.535156 " fill-opacity="1" fill-rule="nonzero"/><path fill="#ffffff" d="M 11.308594 16.472656 C 11.296875 16.472656 11.285156 16.472656 11.273438 16.46875 C 9.898438 16.058594 8.664062 15.28125 7.703125 14.21875 C 7.65625 14.171875 7.65625 14.097656 7.703125 14.050781 C 8.664062 12.988281 9.898438 12.210938 11.273438 11.804688 C 11.316406 11.789062 11.367188 11.800781 11.398438 11.835938 C 11.433594 11.867188 11.445312 11.917969 11.429688 11.960938 C 11.210938 12.667969 11.09375 13.398438 11.085938 14.136719 C 11.09375 14.871094 11.210938 15.601562 11.429688 16.308594 C 11.445312 16.351562 11.433594 16.402344 11.398438 16.433594 C 11.375 16.460938 11.34375 16.472656 11.308594 16.472656 Z M 7.96875 14.136719 C 8.835938 15.058594 9.917969 15.753906 11.121094 16.152344 C 10.9375 15.496094 10.839844 14.820312 10.832031 14.136719 C 10.839844 13.453125 10.9375 12.773438 11.121094 12.117188 C 9.917969 12.519531 8.835938 13.210938 7.96875 14.136719 Z M 7.96875 14.136719 " fill-opacity="1" fill-rule="nonzero"/><path fill="#ffffff" d="M 13.519531 16.824219 C 12.753906 16.8125 12 16.695312 11.269531 16.46875 C 11.230469 16.453125 11.199219 16.421875 11.1875 16.382812 C 10.960938 15.65625 10.839844 14.898438 10.832031 14.136719 C 10.839844 13.371094 10.960938 12.617188 11.1875 11.886719 C 11.199219 11.847656 11.230469 11.816406 11.269531 11.804688 C 12 11.578125 12.753906 11.457031 13.519531 11.449219 C 14.285156 11.449219 15.050781 11.5625 15.785156 11.785156 C 15.824219 11.796875 15.855469 11.828125 15.871094 11.871094 C 16.089844 12.605469 16.203125 13.367188 16.207031 14.136719 C 16.195312 14.898438 16.078125 15.65625 15.851562 16.382812 C 15.839844 16.421875 15.808594 16.453125 15.765625 16.464844 C 15.039062 16.695312 14.285156 16.8125 13.519531 16.824219 Z M 11.410156 16.242188 C 12.09375 16.449219 12.804688 16.558594 13.519531 16.566406 C 14.234375 16.558594 14.941406 16.449219 15.628906 16.242188 C 15.835938 15.558594 15.945312 14.847656 15.953125 14.132812 C 15.949219 13.414062 15.847656 12.699219 15.644531 12.007812 C 14.953125 11.808594 14.238281 11.703125 13.519531 11.703125 C 12.804688 11.710938 12.09375 11.820312 11.410156 12.027344 C 11.203125 12.710938 11.09375 13.421875 11.085938 14.136719 C 11.09375 14.847656 11.203125 15.558594 11.410156 16.242188 Z M 15.730469 16.34375 Z M 15.730469 16.34375 " fill-opacity="1" fill-rule="nonzero"/><path fill="#ffffff" d="M 11.308594 12.050781 C 11.277344 12.050781 11.242188 12.039062 11.21875 12.015625 C 11.1875 11.984375 11.171875 11.933594 11.1875 11.890625 C 11.597656 10.511719 12.378906 9.269531 13.445312 8.304688 C 13.492188 8.261719 13.566406 8.261719 13.617188 8.304688 C 14.675781 9.265625 15.457031 10.5 15.867188 11.871094 C 15.882812 11.914062 15.871094 11.964844 15.835938 11.996094 C 15.804688 12.03125 15.753906 12.042969 15.710938 12.027344 C 15 11.8125 14.261719 11.703125 13.519531 11.703125 C 12.78125 11.710938 12.050781 11.828125 11.347656 12.046875 C 11.332031 12.050781 11.320312 12.050781 11.308594 12.050781 Z M 13.53125 8.574219 C 12.601562 9.441406 11.902344 10.527344 11.5 11.734375 C 12.160156 11.554688 12.835938 11.457031 13.519531 11.449219 C 14.207031 11.449219 14.890625 11.539062 15.554688 11.71875 C 15.152344 10.519531 14.457031 9.4375 13.53125 8.574219 Z M 13.53125 8.574219 " fill-opacity="1" fill-rule="nonzero"/><path fill="#ffffff" d="M 7.796875 14.261719 C 7.761719 14.261719 7.726562 14.246094 7.703125 14.222656 C 6.390625 12.777344 5.660156 10.910156 5.65625 8.957031 C 5.664062 8.195312 5.785156 7.4375 6.011719 6.710938 C 6.023438 6.667969 6.054688 6.640625 6.09375 6.625 C 6.820312 6.398438 7.578125 6.28125 8.339844 6.269531 C 10.296875 6.273438 12.167969 6.996094 13.617188 8.304688 C 13.644531 8.328125 13.65625 8.363281 13.65625 8.398438 C 13.65625 8.4375 13.644531 8.46875 13.617188 8.496094 C 12.585938 9.429688 11.828125 10.628906 11.429688 11.960938 C 11.417969 12.003906 11.386719 12.035156 11.34375 12.046875 C 10.015625 12.441406 8.820312 13.195312 7.890625 14.222656 C 7.867188 14.246094 7.832031 14.261719 7.796875 14.261719 Z M 6.234375 6.847656 C 6.027344 7.535156 5.917969 8.242188 5.910156 8.960938 C 5.914062 10.800781 6.585938 12.566406 7.796875 13.945312 C 8.730469 12.957031 9.90625 12.222656 11.207031 11.824219 C 11.609375 10.515625 12.34375 9.335938 13.339844 8.402344 C 11.957031 7.191406 10.183594 6.527344 8.339844 6.523438 C 7.628906 6.53125 6.917969 6.640625 6.234375 6.847656 Z M 6.234375 6.847656 " fill-opacity="1" fill-rule="nonzero"/><g transform="matrix(1, 0, 0, 1, 32, 4)"><g clip-path="url(#e593c3fba4)"><g clip-path="url(#ff4e960e37)"><g fill="#ffffff" fill-opacity="1"><g transform="translate(0.664466, 7.515502)"><g><path d="M 4.21875 0.15625 C 3.5625 0.15625 2.957031 0.015625 2.40625 -0.265625 C 1.863281 -0.554688 1.429688 -0.957031 1.109375 -1.46875 C 0.796875 -1.988281 0.640625 -2.578125 0.640625 -3.234375 C 0.640625 -3.878906 0.800781 -4.457031 1.125 -4.96875 C 1.457031 -5.488281 1.898438 -5.894531 2.453125 -6.1875 C 3.015625 -6.476562 3.628906 -6.625 4.296875 -6.625 C 4.867188 -6.625 5.378906 -6.519531 5.828125 -6.3125 C 6.273438 -6.113281 6.664062 -5.828125 7 -5.453125 L 6.609375 -5.015625 C 6.304688 -5.347656 5.96875 -5.597656 5.59375 -5.765625 C 5.226562 -5.941406 4.796875 -6.03125 4.296875 -6.03125 C 3.722656 -6.03125 3.203125 -5.90625 2.734375 -5.65625 C 2.265625 -5.40625 1.894531 -5.0625 1.625 -4.625 C 1.363281 -4.195312 1.234375 -3.734375 1.234375 -3.234375 C 1.234375 -2.671875 1.367188 -2.175781 1.640625 -1.75 C 1.910156 -1.332031 2.273438 -1.007812 2.734375 -0.78125 C 3.191406 -0.550781 3.703125 -0.4375 4.265625 -0.4375 C 4.566406 -0.4375 4.859375 -0.472656 5.140625 -0.546875 C 5.347656 -0.597656 5.554688 -0.675781 5.765625 -0.78125 C 5.984375 -0.882812 6.171875 -1.019531 6.328125 -1.1875 C 6.484375 -1.351562 6.5625 -1.535156 6.5625 -1.734375 L 6.5625 -2.875 L 4.21875 -2.875 L 4.21875 -3.46875 L 7.15625 -3.46875 L 7.15625 -1.75 C 7.15625 -1.4375 7.0625 -1.160156 6.875 -0.921875 C 6.695312 -0.679688 6.46875 -0.484375 6.1875 -0.328125 C 5.914062 -0.171875 5.625 -0.0507812 5.3125 0.03125 C 4.957031 0.113281 4.59375 0.15625 4.21875 0.15625 Z M 4.21875 0.15625 "/></g></g></g></g><g fill="#ffffff" fill-opacity="1"><g transform="translate(8.552149, 7.515502)"><g><path d="M 6.71875 0 L 1.15625 0 L 1.15625 -6.484375 L 6.515625 -6.484375 L 6.515625 -5.875 L 1.734375 -5.875 L 1.734375 -3.640625 L 4.34375 -3.640625 L 4.34375 -3.0625 L 1.734375 -3.0625 L 1.734375 -0.59375 L 6.71875 -0.59375 Z M 6.71875 0 "/></g></g></g><g fill="#ffffff" fill-opacity="1"><g transform="translate(15.961525, 7.515502)"><g><path d="M 3.609375 0 L 3.015625 0 L 3.015625 -5.90625 L 0.53125 -5.90625 L 0.53125 -6.5 L 6.0625 -6.5 L 6.0625 -5.90625 L 3.609375 -5.90625 Z M 3.609375 0 "/></g></g></g><g fill="#ffffff" fill-opacity="1"><g transform="translate(22.562134, 7.515502)"><g/></g></g><g clip-path="url(#e6fcd6d1ca)"><g fill="#ffffff" fill-opacity="1"><g transform="translate(25.779823, 7.515502)"><g><path d="M 4.234375 0.140625 C 3.597656 0.140625 3.015625 -0.00390625 2.484375 -0.296875 C 1.953125 -0.585938 1.523438 -0.988281 1.203125 -1.5 C 0.890625 -2.007812 0.734375 -2.585938 0.734375 -3.234375 C 0.734375 -3.898438 0.890625 -4.488281 1.203125 -5 C 1.515625 -5.507812 1.941406 -5.90625 2.484375 -6.1875 C 3.023438 -6.476562 3.617188 -6.625 4.265625 -6.625 C 4.910156 -6.625 5.484375 -6.523438 5.984375 -6.328125 C 6.484375 -6.140625 6.945312 -5.820312 7.375 -5.375 L 6.984375 -4.9375 C 6.609375 -5.320312 6.207031 -5.601562 5.78125 -5.78125 C 5.351562 -5.957031 4.867188 -6.046875 4.328125 -6.046875 C 3.765625 -6.046875 3.253906 -5.929688 2.796875 -5.703125 C 2.347656 -5.472656 1.988281 -5.144531 1.71875 -4.71875 C 1.457031 -4.289062 1.328125 -3.796875 1.328125 -3.234375 C 1.328125 -2.703125 1.457031 -2.222656 1.71875 -1.796875 C 1.988281 -1.378906 2.347656 -1.050781 2.796875 -0.8125 C 3.242188 -0.570312 3.734375 -0.453125 4.265625 -0.453125 C 4.785156 -0.453125 5.269531 -0.550781 5.71875 -0.75 C 6.164062 -0.945312 6.59375 -1.238281 7 -1.625 L 7.40625 -1.1875 C 6.9375 -0.738281 6.441406 -0.40625 5.921875 -0.1875 C 5.410156 0.03125 4.847656 0.140625 4.234375 0.140625 Z M 4.234375 0.140625 "/></g></g></g></g><g clip-path="url(#ef20433aaf)"><g fill="#ffffff" fill-opacity="1"><g transform="translate(33.832736, 7.515502)"><g><path d="M 4.21875 0.140625 C 3.570312 0.140625 2.976562 -0.00390625 2.4375 -0.296875 C 1.90625 -0.585938 1.484375 -0.988281 1.171875 -1.5 C 0.859375 -2.019531 0.703125 -2.601562 0.703125 -3.25 C 0.703125 -3.882812 0.859375 -4.457031 1.171875 -4.96875 C 1.484375 -5.488281 1.90625 -5.894531 2.4375 -6.1875 C 2.96875 -6.476562 3.546875 -6.625 4.171875 -6.625 C 4.804688 -6.625 5.390625 -6.476562 5.921875 -6.1875 C 6.460938 -5.894531 6.890625 -5.488281 7.203125 -4.96875 C 7.523438 -4.457031 7.6875 -3.878906 7.6875 -3.234375 C 7.6875 -2.597656 7.53125 -2.019531 7.21875 -1.5 C 6.90625 -0.988281 6.484375 -0.585938 5.953125 -0.296875 C 5.421875 -0.00390625 4.84375 0.140625 4.21875 0.140625 Z M 4.1875 -0.453125 C 4.71875 -0.453125 5.203125 -0.566406 5.640625 -0.796875 C 6.085938 -1.035156 6.441406 -1.363281 6.703125 -1.78125 C 6.960938 -2.207031 7.09375 -2.6875 7.09375 -3.21875 C 7.09375 -3.75 6.960938 -4.226562 6.703125 -4.65625 C 6.441406 -5.082031 6.09375 -5.421875 5.65625 -5.671875 C 5.21875 -5.921875 4.734375 -6.046875 4.203125 -6.046875 C 3.679688 -6.046875 3.195312 -5.925781 2.75 -5.6875 C 2.300781 -5.445312 1.941406 -5.113281 1.671875 -4.6875 C 1.410156 -4.269531 1.28125 -3.796875 1.28125 -3.265625 C 1.28125 -2.734375 1.40625 -2.25 1.65625 -1.8125 C 1.914062 -1.382812 2.265625 -1.050781 2.703125 -0.8125 C 3.148438 -0.570312 3.644531 -0.453125 4.1875 -0.453125 Z M 4.1875 -0.453125 "/></g></g></g></g><g fill="#ffffff" fill-opacity="1"><g transform="translate(42.207418, 7.515502)"><g><path d="M 1.984375 0 L 1.390625 0 L 1.390625 -6.484375 L 1.984375 -6.484375 L 6.5625 -0.953125 L 6.5625 -6.484375 L 7.15625 -6.484375 L 7.15625 0 L 6.546875 0 L 1.984375 -5.546875 Z M 1.984375 0 "/></g></g></g><g clip-path="url(#6d3d9d5801)"><g fill="#ffffff" fill-opacity="1"><g transform="translate(50.738637, 7.515502)"><g><path d="M 3.640625 0.140625 C 3.054688 0.140625 2.503906 0.0507812 1.984375 -0.125 C 1.679688 -0.238281 1.421875 -0.375 1.203125 -0.53125 C 0.984375 -0.6875 0.734375 -0.90625 0.453125 -1.1875 L 0.859375 -1.609375 C 1.140625 -1.328125 1.421875 -1.097656 1.703125 -0.921875 C 1.984375 -0.753906 2.285156 -0.632812 2.609375 -0.5625 C 2.929688 -0.488281 3.289062 -0.453125 3.6875 -0.453125 C 4.050781 -0.453125 4.421875 -0.488281 4.796875 -0.5625 C 5.171875 -0.644531 5.492188 -0.789062 5.765625 -1 C 6.035156 -1.207031 6.171875 -1.492188 6.171875 -1.859375 C 6.171875 -2.117188 6.097656 -2.335938 5.953125 -2.515625 C 5.804688 -2.691406 5.617188 -2.828125 5.390625 -2.921875 C 5.171875 -3.015625 4.945312 -3.070312 4.71875 -3.09375 C 4.550781 -3.101562 4.148438 -3.109375 3.515625 -3.109375 C 3.390625 -3.117188 3.21875 -3.125 3 -3.125 C 2.644531 -3.132812 2.304688 -3.191406 1.984375 -3.296875 C 1.671875 -3.398438 1.414062 -3.566406 1.21875 -3.796875 C 1.019531 -4.023438 0.921875 -4.320312 0.921875 -4.6875 C 0.921875 -5 1 -5.273438 1.15625 -5.515625 C 1.3125 -5.753906 1.515625 -5.953125 1.765625 -6.109375 C 2.015625 -6.273438 2.289062 -6.394531 2.59375 -6.46875 C 2.96875 -6.570312 3.378906 -6.625 3.828125 -6.625 C 4.304688 -6.625 4.75 -6.546875 5.15625 -6.390625 C 5.570312 -6.242188 5.988281 -6.015625 6.40625 -5.703125 L 6.046875 -5.25 C 5.742188 -5.445312 5.476562 -5.597656 5.25 -5.703125 C 5.03125 -5.804688 4.796875 -5.890625 4.546875 -5.953125 C 4.304688 -6.015625 4.03125 -6.046875 3.71875 -6.046875 C 3.394531 -6.046875 3.113281 -6.019531 2.875 -5.96875 C 2.65625 -5.914062 2.441406 -5.832031 2.234375 -5.71875 C 2.023438 -5.613281 1.851562 -5.472656 1.71875 -5.296875 C 1.582031 -5.128906 1.515625 -4.929688 1.515625 -4.703125 C 1.515625 -4.335938 1.660156 -4.082031 1.953125 -3.9375 C 2.242188 -3.800781 2.59375 -3.726562 3 -3.71875 L 3.625 -3.703125 C 3.71875 -3.703125 3.894531 -3.695312 4.15625 -3.6875 C 4.414062 -3.6875 4.617188 -3.675781 4.765625 -3.65625 C 5.140625 -3.632812 5.476562 -3.546875 5.78125 -3.390625 C 6.082031 -3.242188 6.320312 -3.039062 6.5 -2.78125 C 6.6875 -2.519531 6.78125 -2.210938 6.78125 -1.859375 C 6.78125 -1.367188 6.613281 -0.972656 6.28125 -0.671875 C 5.957031 -0.367188 5.554688 -0.15625 5.078125 -0.03125 C 4.609375 0.0820312 4.128906 0.140625 3.640625 0.140625 Z M 3.640625 0.140625 "/></g></g></g></g><g fill="#ffffff" fill-opacity="1"><g transform="translate(57.982783, 7.515502)"><g><path d="M 4.140625 0.15625 C 3.585938 0.15625 3.097656 0.0664062 2.671875 -0.109375 C 2.253906 -0.296875 1.925781 -0.570312 1.6875 -0.9375 C 1.445312 -1.3125 1.328125 -1.78125 1.328125 -2.34375 L 1.328125 -6.484375 L 1.921875 -6.484375 L 1.921875 -2.34375 C 1.921875 -1.664062 2.125 -1.175781 2.53125 -0.875 C 2.945312 -0.582031 3.507812 -0.4375 4.21875 -0.4375 C 4.625 -0.4375 5.007812 -0.5 5.375 -0.625 C 5.738281 -0.757812 6.019531 -0.96875 6.21875 -1.25 C 6.320312 -1.40625 6.390625 -1.566406 6.421875 -1.734375 C 6.460938 -1.898438 6.484375 -2.101562 6.484375 -2.34375 L 6.484375 -6.484375 L 7.078125 -6.484375 L 7.078125 -2.34375 C 7.078125 -1.769531 6.945312 -1.296875 6.6875 -0.921875 C 6.4375 -0.546875 6.09375 -0.269531 5.65625 -0.09375 C 5.21875 0.0703125 4.710938 0.15625 4.140625 0.15625 Z M 4.140625 0.15625 "/></g></g></g><g fill="#ffffff" fill-opacity="1"><g transform="translate(66.357464, 7.515502)"><g><path d="M 5.9375 0 L 1.109375 0 L 1.109375 -6.484375 L 1.703125 -6.484375 L 1.703125 -0.59375 L 5.9375 -0.59375 Z M 5.9375 0 "/></g></g></g><g fill="#ffffff" fill-opacity="1"><g transform="translate(72.636305, 7.515502)"><g><path d="M 3.609375 0 L 3.015625 0 L 3.015625 -5.90625 L 0.53125 -5.90625 L 0.53125 -6.5 L 6.0625 -6.5 L 6.0625 -5.90625 L 3.609375 -5.90625 Z M 3.609375 0 "/></g></g></g></g></g><g clip-path="url(#f5b803abca)"><g transform="matrix(1, 0, 0, 1, 32, 16)"><g clip-path="url(#d05ddbb557)"><g fill="#ffffff" fill-opacity="1"><g transform="translate(1.027295, 5.358045)"><g><path d="M 0.703125 0 L 0.703125 -3.234375 L 2.8125 -3.234375 C 3.113281 -3.234375 3.351562 -3.160156 3.53125 -3.015625 C 3.71875 -2.878906 3.8125 -2.664062 3.8125 -2.375 C 3.8125 -2.25 3.789062 -2.140625 3.75 -2.046875 C 3.707031 -1.953125 3.640625 -1.851562 3.546875 -1.75 C 3.691406 -1.625 3.796875 -1.503906 3.859375 -1.390625 C 3.929688 -1.285156 3.96875 -1.144531 3.96875 -0.96875 C 3.96875 -0.625 3.859375 -0.375 3.640625 -0.21875 C 3.429688 -0.0703125 3.15625 0 2.8125 0 Z M 2.8125 -1.921875 C 2.988281 -1.921875 3.128906 -1.953125 3.234375 -2.015625 C 3.335938 -2.078125 3.390625 -2.195312 3.390625 -2.375 C 3.390625 -2.539062 3.335938 -2.65625 3.234375 -2.71875 C 3.128906 -2.78125 2.988281 -2.8125 2.8125 -2.8125 L 1.125 -2.8125 L 1.125 -1.921875 Z M 2.8125 -0.4375 C 2.96875 -0.4375 3.09375 -0.445312 3.1875 -0.46875 C 3.289062 -0.488281 3.375 -0.535156 3.4375 -0.609375 C 3.507812 -0.679688 3.546875 -0.789062 3.546875 -0.9375 C 3.546875 -1.144531 3.476562 -1.289062 3.34375 -1.375 C 3.207031 -1.457031 3.03125 -1.5 2.8125 -1.5 L 1.125 -1.5 L 1.125 -0.4375 Z M 2.8125 -0.4375 "/></g></g></g><g fill="#ffffff" fill-opacity="1"><g transform="translate(5.677601, 5.358045)"><g><path d="M 2.03125 0 L 1.59375 0 L 1.59375 -1.609375 L 0.125 -3.234375 L 0.6875 -3.234375 L 1.8125 -2 L 2.9375 -3.234375 L 3.5 -3.234375 L 2.03125 -1.609375 Z M 2.03125 0 "/></g></g></g><g fill="#ffffff" fill-opacity="1"><g transform="translate(9.279863, 5.358045)"><g/></g></g><g fill="#ffffff" fill-opacity="1"><g transform="translate(11.601877, 5.358045)"><g><path d="M 2.453125 0.09375 C 2.097656 0.09375 1.769531 0.0234375 1.46875 -0.109375 C 1.175781 -0.242188 0.9375 -0.441406 0.75 -0.703125 C 0.570312 -0.960938 0.484375 -1.269531 0.484375 -1.625 C 0.484375 -1.976562 0.570312 -2.285156 0.75 -2.546875 C 0.9375 -2.804688 1.179688 -3.003906 1.484375 -3.140625 C 1.796875 -3.273438 2.125 -3.34375 2.46875 -3.34375 C 2.769531 -3.34375 3.035156 -3.300781 3.265625 -3.21875 C 3.503906 -3.144531 3.742188 -3.015625 3.984375 -2.828125 L 3.75 -2.46875 C 3.53125 -2.625 3.320312 -2.738281 3.125 -2.8125 C 2.9375 -2.882812 2.71875 -2.921875 2.46875 -2.921875 C 2.195312 -2.921875 1.941406 -2.867188 1.703125 -2.765625 C 1.460938 -2.671875 1.269531 -2.523438 1.125 -2.328125 C 0.976562 -2.128906 0.90625 -1.894531 0.90625 -1.625 C 0.90625 -1.351562 0.972656 -1.117188 1.109375 -0.921875 C 1.253906 -0.722656 1.441406 -0.570312 1.671875 -0.46875 C 1.910156 -0.375 2.164062 -0.328125 2.4375 -0.328125 C 2.894531 -0.328125 3.304688 -0.453125 3.671875 -0.703125 L 3.671875 -1.34375 L 2.59375 -1.34375 L 2.59375 -1.78125 L 4.09375 -1.78125 L 4.09375 -0.515625 C 3.882812 -0.316406 3.632812 -0.164062 3.34375 -0.0625 C 3.050781 0.0390625 2.753906 0.09375 2.453125 0.09375 Z M 2.453125 0.09375 "/></g></g></g><g fill="#ffffff" fill-opacity="1"><g transform="translate(16.252183, 5.358045)"><g><path d="M 0.8125 0 L 0.8125 -3.234375 L 2.828125 -3.234375 C 3.054688 -3.234375 3.257812 -3.203125 3.4375 -3.140625 C 3.625 -3.078125 3.773438 -2.972656 3.890625 -2.828125 C 4.003906 -2.691406 4.0625 -2.507812 4.0625 -2.28125 C 4.0625 -2.101562 4.023438 -1.953125 3.953125 -1.828125 C 3.878906 -1.703125 3.773438 -1.597656 3.640625 -1.515625 C 3.503906 -1.429688 3.351562 -1.375 3.1875 -1.34375 L 4.140625 0 L 3.609375 0 L 2.6875 -1.3125 L 1.234375 -1.3125 L 1.234375 0 Z M 2.828125 -1.734375 C 3.367188 -1.734375 3.640625 -1.914062 3.640625 -2.28125 C 3.640625 -2.488281 3.5625 -2.628906 3.40625 -2.703125 C 3.257812 -2.773438 3.066406 -2.8125 2.828125 -2.8125 L 1.234375 -2.8125 L 1.234375 -1.734375 Z M 2.828125 -1.734375 "/></g></g></g><g fill="#ffffff" fill-opacity="1"><g transform="translate(20.902489, 5.358045)"><g><path d="M 3.671875 0 L 0.75 0 L 0.75 -3.234375 L 3.609375 -3.234375 L 3.609375 -2.8125 L 1.171875 -2.8125 L 1.171875 -1.875 L 2.5625 -1.875 L 2.5625 -1.4375 L 1.171875 -1.4375 L 1.171875 -0.4375 L 3.671875 -0.4375 Z M 3.671875 0 "/></g></g></g><g fill="#ffffff" fill-opacity="1"><g transform="translate(25.201353, 5.358045)"><g><path d="M 3.671875 0 L 0.75 0 L 0.75 -3.234375 L 3.609375 -3.234375 L 3.609375 -2.8125 L 1.171875 -2.8125 L 1.171875 -1.875 L 2.5625 -1.875 L 2.5625 -1.4375 L 1.171875 -1.4375 L 1.171875 -0.4375 L 3.671875 -0.4375 Z M 3.671875 0 "/></g></g></g><g fill="#ffffff" fill-opacity="1"><g transform="translate(29.500216, 5.358045)"><g><path d="M 1.375 0 L 0.953125 0 L 0.953125 -3.234375 L 1.375 -3.234375 L 3.65625 -0.640625 L 3.65625 -3.234375 L 4.0625 -3.234375 L 4.0625 0 L 3.65625 0 L 1.375 -2.59375 Z M 1.375 0 "/></g></g></g><g fill="#ffffff" fill-opacity="1"><g transform="translate(34.495687, 5.358045)"><g/></g></g><g fill="#ffffff" fill-opacity="1"><g transform="translate(36.817701, 5.358045)"><g><path d="M 3.671875 0 L 0.75 0 L 0.75 -3.234375 L 3.609375 -3.234375 L 3.609375 -2.8125 L 1.171875 -2.8125 L 1.171875 -1.875 L 2.5625 -1.875 L 2.5625 -1.4375 L 1.171875 -1.4375 L 1.171875 -0.4375 L 3.671875 -0.4375 Z M 3.671875 0 "/></g></g></g><g fill="#ffffff" fill-opacity="1"><g transform="translate(41.116565, 5.358045)"><g><path d="M 1.375 0 L 0.953125 0 L 0.953125 -3.234375 L 1.375 -3.234375 L 3.65625 -0.640625 L 3.65625 -3.234375 L 4.0625 -3.234375 L 4.0625 0 L 3.65625 0 L 1.375 -2.59375 Z M 1.375 0 "/></g></g></g><g fill="#ffffff" fill-opacity="1"><g transform="translate(46.112036, 5.358045)"><g><path d="M 3.671875 0 L 0.75 0 L 0.75 -3.234375 L 3.609375 -3.234375 L 3.609375 -2.8125 L 1.171875 -2.8125 L 1.171875 -1.875 L 2.5625 -1.875 L 2.5625 -1.4375 L 1.171875 -1.4375 L 1.171875 -0.4375 L 3.671875 -0.4375 Z M 3.671875 0 "/></g></g></g><g fill="#ffffff" fill-opacity="1"><g transform="translate(50.410899, 5.358045)"><g><path d="M 0.8125 0 L 0.8125 -3.234375 L 2.828125 -3.234375 C 3.054688 -3.234375 3.257812 -3.203125 3.4375 -3.140625 C 3.625 -3.078125 3.773438 -2.972656 3.890625 -2.828125 C 4.003906 -2.691406 4.0625 -2.507812 4.0625 -2.28125 C 4.0625 -2.101562 4.023438 -1.953125 3.953125 -1.828125 C 3.878906 -1.703125 3.773438 -1.597656 3.640625 -1.515625 C 3.503906 -1.429688 3.351562 -1.375 3.1875 -1.34375 L 4.140625 0 L 3.609375 0 L 2.6875 -1.3125 L 1.234375 -1.3125 L 1.234375 0 Z M 2.828125 -1.734375 C 3.367188 -1.734375 3.640625 -1.914062 3.640625 -2.28125 C 3.640625 -2.488281 3.5625 -2.628906 3.40625 -2.703125 C 3.257812 -2.773438 3.066406 -2.8125 2.828125 -2.8125 L 1.234375 -2.8125 L 1.234375 -1.734375 Z M 2.828125 -1.734375 "/></g></g></g><g fill="#ffffff" fill-opacity="1"><g transform="translate(55.061205, 5.358045)"><g><path d="M 2.453125 0.09375 C 2.097656 0.09375 1.769531 0.0234375 1.46875 -0.109375 C 1.175781 -0.242188 0.9375 -0.441406 0.75 -0.703125 C 0.570312 -0.960938 0.484375 -1.269531 0.484375 -1.625 C 0.484375 -1.976562 0.570312 -2.285156 0.75 -2.546875 C 0.9375 -2.804688 1.179688 -3.003906 1.484375 -3.140625 C 1.796875 -3.273438 2.125 -3.34375 2.46875 -3.34375 C 2.769531 -3.34375 3.035156 -3.300781 3.265625 -3.21875 C 3.503906 -3.144531 3.742188 -3.015625 3.984375 -2.828125 L 3.75 -2.46875 C 3.53125 -2.625 3.320312 -2.738281 3.125 -2.8125 C 2.9375 -2.882812 2.71875 -2.921875 2.46875 -2.921875 C 2.195312 -2.921875 1.941406 -2.867188 1.703125 -2.765625 C 1.460938 -2.671875 1.269531 -2.523438 1.125 -2.328125 C 0.976562 -2.128906 0.90625 -1.894531 0.90625 -1.625 C 0.90625 -1.351562 0.972656 -1.117188 1.109375 -0.921875 C 1.253906 -0.722656 1.441406 -0.570312 1.671875 -0.46875 C 1.910156 -0.375 2.164062 -0.328125 2.4375 -0.328125 C 2.894531 -0.328125 3.304688 -0.453125 3.671875 -0.703125 L 3.671875 -1.34375 L 2.59375 -1.34375 L 2.59375 -1.78125 L 4.09375 -1.78125 L 4.09375 -0.515625 C 3.882812 -0.316406 3.632812 -0.164062 3.34375 -0.0625 C 3.050781 0.0390625 2.753906 0.09375 2.453125 0.09375 Z M 2.453125 0.09375 "/></g></g></g><g fill="#ffffff" fill-opacity="1"><g transform="translate(59.711512, 5.358045)"><g><path d="M 2.03125 0 L 1.59375 0 L 1.59375 -1.609375 L 0.125 -3.234375 L 0.6875 -3.234375 L 1.8125 -2 L 2.9375 -3.234375 L 3.5 -3.234375 L 2.03125 -1.609375 Z M 2.03125 0 "/></g></g></g><g fill="#ffffff" fill-opacity="1"><g transform="translate(63.313773, 5.358045)"><g/></g></g><g fill="#ffffff" fill-opacity="1"><g transform="translate(65.635787, 5.358045)"><g><path d="M 2.0625 0 L 1.640625 0 L 1.640625 -2.8125 L 0.34375 -2.8125 L 0.34375 -3.234375 L 3.390625 -3.234375 L 3.390625 -2.8125 L 2.0625 -2.8125 Z M 2.0625 0 "/></g></g></g><g fill="#ffffff" fill-opacity="1"><g transform="translate(69.357289, 5.358045)"><g><path d="M 0.8125 0 L 0.8125 -3.234375 L 2.828125 -3.234375 C 3.054688 -3.234375 3.257812 -3.203125 3.4375 -3.140625 C 3.625 -3.078125 3.773438 -2.972656 3.890625 -2.828125 C 4.003906 -2.691406 4.0625 -2.507812 4.0625 -2.28125 C 4.0625 -2.101562 4.023438 -1.953125 3.953125 -1.828125 C 3.878906 -1.703125 3.773438 -1.597656 3.640625 -1.515625 C 3.503906 -1.429688 3.351562 -1.375 3.1875 -1.34375 L 4.140625 0 L 3.609375 0 L 2.6875 -1.3125 L 1.234375 -1.3125 L 1.234375 0 Z M 2.828125 -1.734375 C 3.367188 -1.734375 3.640625 -1.914062 3.640625 -2.28125 C 3.640625 -2.488281 3.5625 -2.628906 3.40625 -2.703125 C 3.257812 -2.773438 3.066406 -2.8125 2.828125 -2.8125 L 1.234375 -2.8125 L 1.234375 -1.734375 Z M 2.828125 -1.734375 "/></g></g></g><g fill="#ffffff" fill-opacity="1"><g transform="translate(74.007595, 5.358045)"><g><path d="M 0.578125 0 L 0.125 0 L 1.984375 -3.234375 L 2.359375 -3.234375 L 4.171875 0 L 3.734375 0 L 3.28125 -0.8125 L 1.03125 -0.8125 Z M 2.171875 -2.796875 L 1.28125 -1.234375 L 3.046875 -1.234375 Z M 2.171875 -2.796875 "/></g></g></g><g fill="#ffffff" fill-opacity="1"><g transform="translate(78.306459, 5.358045)"><g><path d="M 1.375 0 L 0.953125 0 L 0.953125 -3.234375 L 1.375 -3.234375 L 3.65625 -0.640625 L 3.65625 -3.234375 L 4.0625 -3.234375 L 4.0625 0 L 3.65625 0 L 1.375 -2.59375 Z M 1.375 0 "/></g></g></g><g fill="#ffffff" fill-opacity="1"><g transform="translate(83.30193, 5.358045)"><g><path d="M 2.375 0.125 C 2.007812 0.125 1.648438 0.0703125 1.296875 -0.03125 C 1.109375 -0.0820312 0.953125 -0.132812 0.828125 -0.1875 C 0.703125 -0.25 0.554688 -0.335938 0.390625 -0.453125 L 0.59375 -0.84375 C 0.695312 -0.769531 0.773438 -0.71875 0.828125 -0.6875 C 1.023438 -0.550781 1.253906 -0.453125 1.515625 -0.390625 C 1.785156 -0.328125 2.054688 -0.296875 2.328125 -0.296875 C 2.492188 -0.296875 2.660156 -0.3125 2.828125 -0.34375 C 3.003906 -0.375 3.15625 -0.4375 3.28125 -0.53125 C 3.40625 -0.625 3.46875 -0.75 3.46875 -0.90625 C 3.46875 -1.09375 3.394531 -1.226562 3.25 -1.3125 C 3.113281 -1.394531 2.9375 -1.441406 2.71875 -1.453125 C 2.4375 -1.472656 2.113281 -1.484375 1.75 -1.484375 C 1.5625 -1.484375 1.382812 -1.515625 1.21875 -1.578125 C 1.050781 -1.648438 0.910156 -1.753906 0.796875 -1.890625 C 0.691406 -2.023438 0.640625 -2.1875 0.640625 -2.375 C 0.640625 -2.613281 0.707031 -2.804688 0.84375 -2.953125 C 0.988281 -3.097656 1.171875 -3.203125 1.390625 -3.265625 C 1.609375 -3.328125 1.828125 -3.359375 2.046875 -3.359375 C 2.347656 -3.359375 2.644531 -3.320312 2.9375 -3.25 C 3.226562 -3.175781 3.488281 -3.0625 3.71875 -2.90625 L 3.53125 -2.515625 C 3.332031 -2.628906 3.164062 -2.710938 3.03125 -2.765625 C 2.90625 -2.828125 2.769531 -2.867188 2.625 -2.890625 C 2.476562 -2.910156 2.296875 -2.921875 2.078125 -2.921875 C 1.828125 -2.921875 1.59375 -2.878906 1.375 -2.796875 C 1.164062 -2.722656 1.0625 -2.585938 1.0625 -2.390625 C 1.0625 -2.273438 1.09375 -2.179688 1.15625 -2.109375 C 1.226562 -2.046875 1.3125 -1.992188 1.40625 -1.953125 C 1.507812 -1.921875 1.617188 -1.90625 1.734375 -1.90625 C 2.023438 -1.90625 2.320312 -1.898438 2.625 -1.890625 C 2.84375 -1.878906 3.046875 -1.835938 3.234375 -1.765625 C 3.429688 -1.703125 3.59375 -1.597656 3.71875 -1.453125 C 3.84375 -1.304688 3.90625 -1.125 3.90625 -0.90625 C 3.90625 -0.65625 3.828125 -0.453125 3.671875 -0.296875 C 3.515625 -0.140625 3.320312 -0.03125 3.09375 0.03125 C 2.863281 0.09375 2.625 0.125 2.375 0.125 Z M 2.375 0.125 "/></g></g></g><g fill="#ffffff" fill-opacity="1"><g transform="translate(87.600793, 5.358045)"><g><path d="M 1.390625 0 L 0.96875 0 L 0.96875 -3.234375 L 1.390625 -3.234375 Z M 1.390625 0 "/></g></g></g><g fill="#ffffff" fill-opacity="1"><g transform="translate(89.922807, 5.358045)"><g><path d="M 2.0625 0 L 1.640625 0 L 1.640625 -2.8125 L 0.34375 -2.8125 L 0.34375 -3.234375 L 3.390625 -3.234375 L 3.390625 -2.8125 L 2.0625 -2.8125 Z M 2.0625 0 "/></g></g></g><g fill="#ffffff" fill-opacity="1"><g transform="translate(93.644309, 5.358045)"><g><path d="M 1.390625 0 L 0.96875 0 L 0.96875 -3.234375 L 1.390625 -3.234375 Z M 1.390625 0 "/></g></g></g><g fill="#ffffff" fill-opacity="1"><g transform="translate(95.966323, 5.358045)"><g><path d="M 2.5 0.125 C 2.144531 0.125 1.816406 0.0546875 1.515625 -0.078125 C 1.210938 -0.222656 0.96875 -0.429688 0.78125 -0.703125 C 0.601562 -0.972656 0.515625 -1.285156 0.515625 -1.640625 C 0.515625 -1.984375 0.601562 -2.285156 0.78125 -2.546875 C 0.96875 -2.804688 1.210938 -3.003906 1.515625 -3.140625 C 1.816406 -3.285156 2.132812 -3.359375 2.46875 -3.359375 C 2.820312 -3.359375 3.148438 -3.285156 3.453125 -3.140625 C 3.765625 -2.992188 4.015625 -2.785156 4.203125 -2.515625 C 4.390625 -2.253906 4.484375 -1.945312 4.484375 -1.59375 C 4.484375 -1.238281 4.390625 -0.929688 4.203125 -0.671875 C 4.023438 -0.410156 3.78125 -0.210938 3.46875 -0.078125 C 3.164062 0.0546875 2.84375 0.125 2.5 0.125 Z M 2.5 -0.3125 C 2.769531 -0.3125 3.023438 -0.359375 3.265625 -0.453125 C 3.503906 -0.546875 3.695312 -0.691406 3.84375 -0.890625 C 3.988281 -1.085938 4.0625 -1.320312 4.0625 -1.59375 C 4.0625 -1.863281 3.984375 -2.097656 3.828125 -2.296875 C 3.679688 -2.503906 3.488281 -2.660156 3.25 -2.765625 C 3.007812 -2.867188 2.75 -2.921875 2.46875 -2.921875 C 2.207031 -2.921875 1.957031 -2.867188 1.71875 -2.765625 C 1.488281 -2.671875 1.296875 -2.523438 1.140625 -2.328125 C 0.992188 -2.128906 0.921875 -1.898438 0.921875 -1.640625 C 0.921875 -1.359375 0.992188 -1.113281 1.140625 -0.90625 C 1.296875 -0.707031 1.492188 -0.554688 1.734375 -0.453125 C 1.972656 -0.359375 2.226562 -0.3125 2.5 -0.3125 Z M 2.5 -0.3125 "/></g></g></g><g fill="#ffffff" fill-opacity="1"><g transform="translate(100.961794, 5.358045)"><g><path d="M 1.375 0 L 0.953125 0 L 0.953125 -3.234375 L 1.375 -3.234375 L 3.65625 -0.640625 L 3.65625 -3.234375 L 4.0625 -3.234375 L 4.0625 0 L 3.65625 0 L 1.375 -2.59375 Z M 1.375 0 "/></g></g></g></g></g></g></g></g></svg>