<svg xmlns="http://www.w3.org/2000/svg" width="512" height="512" viewBox="0 0 512 512" role="img" aria-label="GET Consult">
  <rect width="512" height="512" fill="#0a0a0a"/>
  <g transform="translate(96 156) scale(2.35)">
    <path fill="#ffffff" d="M13.531 8.527c-1.403-1.27-3.215-1.969-5.106-1.973-.734.012-1.464.125-2.171.344a.12.12 0 0 1-.125-.027.12.12 0 0 1-.035-.129C7.008 3.363 10.023 1.105 13.52 1.094 17.016 1.094 20.04 3.344 21.047 6.691a.12.12 0 0 1-.031.129.12.12 0 0 1-.129-.008c-.711-.215-1.445-.324-2.191-.328-1.88.008-3.684.707-5.078 1.973-.024.02-.055.031-.086.031z"/>
    <path fill="#ffffff" d="M13.52 27.176c-3.496-.012-6.512-2.27-7.512-5.617a.12.12 0 0 1 .035-.125.12.12 0 0 1 .125.008c.707.219 1.438.336 2.176.344 1.887-.008 3.696-.711 5.09-1.98.047-.047.121-.047.172 0 1.394 1.27 3.203 1.973 5.09 1.98.738-.008 1.469-.125 2.172-.344a.12.12 0 0 1 .129.031.12.12 0 0 1-.015.125c-.996 3.348-4.015 5.606-7.507 5.617z"/>
    <path fill="#ffffff" d="M20.906 21.648a.09.09 0 0 1-.09-.035.12.12 0 0 1-.012-.129c.219-.703.336-1.434.344-2.172.008-1.891-.691-3.703-1.961-5.105a.12.12 0 0 1 0-.168c1.262-1.395 1.961-3.2 1.969-5.082 0-.742-.109-1.48-.324-2.191a.12.12 0 0 1 .031-.125.12.12 0 0 1 .125-.031c3.348 1.004 5.598 4.031 5.602 7.527-.016 3.492-2.27 6.512-5.621 7.508z"/>
    <path fill="#ffffff" d="M18.699 22c-1.953-.008-3.824-.734-5.266-2.047a.12.12 0 0 1-.027-.094c0-.035.016-.07.039-.094 1.027-.933 1.777-2.129 2.176-3.457.012-.039.043-.074.082-.086 1.336-.398 2.535-1.152 3.469-2.183.047-.055.14-.055.187 0 1.313 1.445 2.035 3.32 2.035 5.273-.008.766-.129 1.52-.356 2.246a.12.12 0 0 1-.082.086c-.73.227-1.484.348-2.246.356z"/>
    <path fill="#ffffff" d="M6.133 21.648a.09.09 0 0 1-.039-.004C2.746 20.648.488 17.629.477 14.137.488 10.641 2.746 7.625 6.094 6.625a.12.12 0 0 1 .129.035.12.12 0 0 1 .031.125c-.219.703-.336 1.438-.344 2.176.008 1.883.711 3.691 1.98 5.09a.12.12 0 0 1 0 .171c-1.27 1.395-1.973 3.203-1.98 5.09.008.738.125 1.469.344 2.172a.12.12 0 0 1-.031.129.09.09 0 0 1-.039.004z"/>
    <path fill="#ffffff" d="M8.344 22c-.766-.008-1.523-.129-2.25-.356a.12.12 0 0 1-.082-.082c-.227-.73-.348-1.484-.356-2.25.004-1.949.73-3.82 2.043-5.262a.12.12 0 0 1 .094-.027c.035 0 .07.016.094.039.93 1.024 2.125 1.778 3.453 2.172.043.012.074.047.086.086.398 1.328 1.148 2.524 2.176 3.457.027.024.039.059.039.094 0 .035-.016.07-.039.094-1.445 1.312-3.312 2.039-5.262 2.047z"/>
  </g>
</svg>
